<?xml version="1.0" encoding="utf-8"?>
<!-- Generator: Adobe Illustrator 24.0.2, SVG Export Plug-In . SVG Version: 6.00 Build 0)  -->
<svg version="1.1" id="Layer_1" xmlns="http://www.w3.org/2000/svg" xmlns:xlink="http://www.w3.org/1999/xlink" x="0px" y="0px"
	 viewBox="0 0 21 20" style="enable-background:new 0 0 21 20;" xml:space="preserve">
<style type="text/css">
	.st0{fill:#7064E9;}
	.st1{fill:#FFFFFF;}
</style>
<circle class="st0" cx="10.6" cy="10" r="10"/>
<path class="st1" d="M10.7,16.2c-0.8,0-1.5-0.1-2.1-0.4C8,15.4,7.5,15,7.1,14.5c-0.4-0.5-0.6-1.1-0.6-1.8h2.4c0,0.5,0.2,0.8,0.6,1.1
	c0.4,0.3,0.8,0.4,1.3,0.4c0.4,0,0.7-0.1,1-0.3c0.3-0.2,0.5-0.4,0.7-0.7c0.2-0.3,0.3-0.7,0.3-1.1c0-0.4-0.1-0.8-0.3-1.1
	c-0.2-0.3-0.4-0.6-0.7-0.7c-0.3-0.2-0.6-0.3-1-0.3c-0.3,0-0.7,0.1-1,0.2c-0.3,0.1-0.6,0.3-0.7,0.6l-2.2-0.4l0.6-6.1h7.1v2H9.4
	L9.1,9.3h0.1C9.3,9,9.6,8.8,10.1,8.6c0.4-0.2,0.9-0.3,1.4-0.3c0.7,0,1.3,0.2,1.9,0.5c0.5,0.3,1,0.8,1.3,1.4c0.3,0.6,0.5,1.2,0.5,2
	c0,0.8-0.2,1.5-0.5,2.1c-0.4,0.6-0.9,1.1-1.5,1.4C12.4,16,11.6,16.2,10.7,16.2z"/>
</svg>
