<svg width="116" height="42" viewBox="0 0 116 42" fill="none" xmlns="http://www.w3.org/2000/svg">
<rect x="0.727539" y="0.130371" width="114.545" height="41.7391" rx="6" fill="black"/>
<path d="M25.432 20.8934C25.4442 19.9735 25.6945 19.0715 26.1596 18.2714C26.6247 17.4713 27.2896 16.7991 28.0923 16.3172C27.5824 15.6062 26.9096 15.021 26.1275 14.6082C25.3454 14.1954 24.4754 13.9663 23.5868 13.9392C21.6911 13.7449 19.8533 15.0467 18.8873 15.0467C17.9026 15.0467 16.4153 13.9585 14.8137 13.9907C13.7777 14.0233 12.7681 14.3174 11.8832 14.8443C10.9983 15.3712 10.2683 16.1129 9.76427 16.9971C7.58106 20.6875 9.20954 26.1112 11.3009 29.0942C12.3473 30.5549 13.5702 32.1866 15.1703 32.1287C16.7362 32.0653 17.321 31.1539 19.2111 31.1539C21.0836 31.1539 21.6323 32.1287 23.2649 32.0919C24.9451 32.0653 26.0037 30.6247 27.0134 29.1502C27.7652 28.1094 28.3437 26.9591 28.7275 25.7418C27.7514 25.3388 26.9183 24.6641 26.3323 23.8019C25.7463 22.9397 25.4332 21.9281 25.432 20.8934Z" fill="white"/>
<path d="M22.3486 11.9775C23.2647 10.9038 23.7161 9.52373 23.6068 8.13037C22.2071 8.27389 20.9143 8.92697 19.9858 9.95948C19.5318 10.4639 19.1841 11.0507 18.9626 11.6864C18.741 12.3221 18.65 12.9941 18.6946 13.6642C19.3947 13.6712 20.0873 13.5231 20.7202 13.2309C21.3531 12.9387 21.9099 12.5102 22.3486 11.9775Z" fill="white"/>
<path d="M37.5186 9.63184H39.5884C41.377 9.63184 42.2471 10.6953 42.2471 12.6245C42.2471 14.5537 41.3682 15.6304 39.5884 15.6304H37.5186V9.63184ZM38.5161 10.4712V14.791H39.4785C40.665 14.791 41.2231 14.0747 41.2231 12.6377C41.2231 11.1919 40.6606 10.4712 39.4785 10.4712H38.5161ZM45.4023 10.9062C46.6152 10.9062 47.4634 11.6929 47.4634 12.998V13.6001C47.4634 14.9492 46.6152 15.7095 45.4023 15.7095C44.1719 15.7095 43.3325 14.958 43.3325 13.6045V13.0024C43.3325 11.7324 44.1851 10.9062 45.4023 10.9062ZM45.4067 11.6929C44.7124 11.6929 44.3169 12.2729 44.3169 13.0508V13.5693C44.3169 14.3472 44.686 14.9229 45.4067 14.9229C46.1187 14.9229 46.4834 14.3516 46.4834 13.5693V13.0508C46.4834 12.2729 46.1011 11.6929 45.4067 11.6929ZM54.6265 10.9854L53.4048 15.6304H52.4116L51.4404 12.2026H51.4141L50.4604 15.6304H49.4629L48.1885 10.9854H49.2388L49.9858 14.5273H50.0298L50.9658 10.9854H51.8843L52.8467 14.5273H52.8906L53.6509 10.9854H54.6265ZM55.5933 15.6304V10.9854H56.5513V11.8203H56.5996C56.7183 11.4556 57.0566 10.915 57.9971 10.915C58.9331 10.915 59.5615 11.4336 59.5615 12.4927V15.6304H58.5859V12.7783C58.5859 12.0708 58.2168 11.7456 57.6675 11.7456C56.9468 11.7456 56.5688 12.2993 56.5688 13.0508V15.6304H55.5933ZM61.0381 15.6304V9.31543H62.0137V15.6304H61.0381ZM65.3623 10.9062C66.5752 10.9062 67.4233 11.6929 67.4233 12.998V13.6001C67.4233 14.9492 66.5752 15.7095 65.3623 15.7095C64.1318 15.7095 63.2925 14.958 63.2925 13.6045V13.0024C63.2925 11.7324 64.145 10.9062 65.3623 10.9062ZM65.3667 11.6929C64.6724 11.6929 64.2769 12.2729 64.2769 13.0508V13.5693C64.2769 14.3472 64.646 14.9229 65.3667 14.9229C66.0786 14.9229 66.4434 14.3516 66.4434 13.5693V13.0508C66.4434 12.2729 66.061 11.6929 65.3667 11.6929ZM69.9502 15.7007C69.0493 15.7007 68.4297 15.147 68.4297 14.2812C68.4297 13.4595 69.001 12.9058 70.0732 12.9058H71.2466V12.4707C71.2466 11.939 70.9082 11.6885 70.3721 11.6885C69.8447 11.6885 69.6074 11.9082 69.5327 12.2158H68.6055C68.6626 11.438 69.2471 10.915 70.4028 10.915C71.396 10.915 72.2178 11.3281 72.2178 12.4839V15.6304H71.2905V15.0283H71.2466C71.04 15.3843 70.6357 15.7007 69.9502 15.7007ZM70.2534 14.9448C70.8071 14.9448 71.2466 14.5669 71.2466 14.0615V13.5605H70.2271C69.6602 13.5605 69.4097 13.8462 69.4097 14.2329C69.4097 14.7163 69.814 14.9448 70.2534 14.9448ZM75.2236 10.9238C75.8784 10.9238 76.3794 11.2139 76.5596 11.6841H76.6079V9.31543H77.5835V15.6304H76.6343V14.8877H76.5859C76.4453 15.3579 75.8872 15.6919 75.2104 15.6919C74.1426 15.6919 73.4482 14.9316 73.4482 13.7056V12.9102C73.4482 11.6841 74.1558 10.9238 75.2236 10.9238ZM75.4961 11.7236C74.8457 11.7236 74.4414 12.207 74.4414 13.0508V13.5605C74.4414 14.4087 74.8501 14.8921 75.5181 14.8921C76.1772 14.8921 76.6079 14.4131 76.6079 13.6221V12.9189C76.6079 12.2026 76.1377 11.7236 75.4961 11.7236ZM82.9404 10.9062C84.1533 10.9062 85.0015 11.6929 85.0015 12.998V13.6001C85.0015 14.9492 84.1533 15.7095 82.9404 15.7095C81.71 15.7095 80.8706 14.958 80.8706 13.6045V13.0024C80.8706 11.7324 81.7231 10.9062 82.9404 10.9062ZM82.9448 11.6929C82.2505 11.6929 81.855 12.2729 81.855 13.0508V13.5693C81.855 14.3472 82.2241 14.9229 82.9448 14.9229C83.6567 14.9229 84.0215 14.3516 84.0215 13.5693V13.0508C84.0215 12.2729 83.6392 11.6929 82.9448 11.6929ZM86.2583 15.6304V10.9854H87.2163V11.8203H87.2646C87.3833 11.4556 87.7217 10.915 88.6621 10.915C89.5981 10.915 90.2266 11.4336 90.2266 12.4927V15.6304H89.251V12.7783C89.251 12.0708 88.8818 11.7456 88.3325 11.7456C87.6118 11.7456 87.2339 12.2993 87.2339 13.0508V15.6304H86.2583ZM94.0015 11.0161V9.85596H94.9551V11.0161H95.9966V11.7808H94.9551V14.2461C94.9551 14.7515 95.144 14.8921 95.667 14.8921C95.7988 14.8921 95.9746 14.8833 96.0493 14.8745V15.6216C95.9702 15.6348 95.645 15.6611 95.4253 15.6611C94.2959 15.6611 93.9883 15.2568 93.9883 14.3252V11.7808H93.2808V11.0161H94.0015ZM97.2271 15.6304V9.31543H98.1982V11.8203H98.2466C98.3477 11.4907 98.7256 10.915 99.6572 10.915C100.562 10.915 101.208 11.438 101.208 12.4971V15.6304H100.237V12.7827C100.237 12.0752 99.8462 11.7456 99.2925 11.7456C98.5938 11.7456 98.1982 12.2949 98.1982 13.0508V15.6304H97.2271ZM104.482 15.7095C103.217 15.7095 102.43 14.9316 102.43 13.6221V12.9937C102.43 11.6753 103.292 10.9062 104.425 10.9062C105.59 10.9062 106.412 11.7148 106.412 12.9937V13.5386H103.397V13.7671C103.397 14.4351 103.792 14.9272 104.478 14.9272C104.988 14.9272 105.339 14.6855 105.405 14.3955H106.359C106.302 14.9316 105.735 15.7095 104.482 15.7095ZM103.397 12.9014H105.458V12.8398C105.458 12.1411 105.049 11.6753 104.43 11.6753C103.81 11.6753 103.397 12.1411 103.397 12.8398V12.9014Z" fill="white"/>
<path d="M38.9336 31.6304H36.9033L41.0342 19.6333H43.2666L47.3887 31.6304H45.2793L44.2158 28.3081H40.0059L38.9336 31.6304ZM42.1592 21.7075H42.0801L40.4541 26.7788H43.7676L42.1592 21.7075ZM52.9919 31.7622C51.7878 31.7622 50.8737 31.1909 50.3816 30.3384H50.3112V34.7153H48.3601V22.3403H50.2585V23.7026H50.3288C50.8386 22.8149 51.7878 22.2173 53.0359 22.2173C55.1189 22.2173 56.6042 23.7905 56.6042 26.5679V27.394C56.6042 30.1538 55.1364 31.7622 52.9919 31.7622ZM52.5437 30.1538C53.7829 30.1538 54.6267 29.1606 54.6267 27.2886V26.6382C54.6267 24.8364 53.8357 23.8081 52.5085 23.8081C51.1462 23.8081 50.2937 24.9155 50.2937 26.6294V27.2886C50.2937 29.0464 51.155 30.1538 52.5437 30.1538ZM62.9106 31.7622C61.7065 31.7622 60.7924 31.1909 60.3002 30.3384H60.2299V34.7153H58.2787V22.3403H60.1772V23.7026H60.2475C60.7573 22.8149 61.7065 22.2173 62.9545 22.2173C65.0375 22.2173 66.5229 23.7905 66.5229 26.5679V27.394C66.5229 30.1538 65.0551 31.7622 62.9106 31.7622ZM62.4623 30.1538C63.7016 30.1538 64.5454 29.1606 64.5454 27.2886V26.6382C64.5454 24.8364 63.7543 23.8081 62.4272 23.8081C61.0649 23.8081 60.2123 24.9155 60.2123 26.6294V27.2886C60.2123 29.0464 61.0737 30.1538 62.4623 30.1538ZM70.5663 28.2993H72.5175C72.6054 29.3364 73.5194 30.2241 75.2157 30.2241C76.7714 30.2241 77.6942 29.4946 77.6942 28.3608C77.6942 27.4468 77.079 26.9546 75.7958 26.647L73.827 26.1548C72.2802 25.7944 70.8915 24.8716 70.8915 22.9204C70.8915 20.6265 72.8954 19.3696 75.2245 19.3696C77.5536 19.3696 79.496 20.6265 79.5399 22.8677H77.6239C77.536 21.8481 76.7538 21.0044 75.1981 21.0044C73.827 21.0044 72.8954 21.6548 72.8954 22.771C72.8954 23.5532 73.4403 24.1157 74.5565 24.3706L76.5165 24.854C78.3182 25.2935 79.6893 26.146 79.6893 28.1851C79.6893 30.5405 77.7821 31.8677 75.0663 31.8677C71.7264 31.8677 70.6102 29.9165 70.5663 28.2993ZM82.067 22.3403V20.0815H83.983V22.3403H85.7936V23.9048H83.983V28.8618C83.983 29.8726 84.3609 30.1538 85.4068 30.1538C85.5738 30.1538 85.732 30.1538 85.8463 30.1362V31.6304C85.6881 31.6567 85.3189 31.6919 84.9234 31.6919C82.6646 31.6919 82.0406 30.8833 82.0406 29.02V23.9048H80.7574V22.3403H82.067ZM91.0628 22.1821C93.7347 22.1821 95.1849 24.063 95.1849 26.5942V27.3413C95.1849 29.9604 93.7435 31.7886 91.0628 31.7886C88.3821 31.7886 86.9232 29.9604 86.9232 27.3413V26.5942C86.9232 24.0718 88.3909 22.1821 91.0628 22.1821ZM91.0628 23.7466C89.6126 23.7466 88.8919 24.9331 88.8919 26.6206V27.3325C88.8919 28.9937 89.6038 30.2153 91.0628 30.2153C92.5218 30.2153 93.2249 29.0024 93.2249 27.3325V26.6206C93.2249 24.9243 92.513 23.7466 91.0628 23.7466ZM96.833 31.6304V22.3403H98.7842V23.562H98.8545C99.0918 22.9819 99.7862 22.2085 101.078 22.2085C101.333 22.2085 101.553 22.2261 101.737 22.2612V23.9839C101.57 23.9399 101.228 23.9136 100.902 23.9136C99.3379 23.9136 98.8106 24.8804 98.8106 26.1284V31.6304H96.833ZM106.47 31.7886C103.983 31.7886 102.401 30.145 102.401 27.394V26.4536C102.401 23.8608 103.948 22.1821 106.391 22.1821C108.87 22.1821 110.364 23.9224 110.364 26.5415V27.4292H104.326V27.6489C104.326 29.2134 105.17 30.2505 106.497 30.2505C107.49 30.2505 108.167 29.7583 108.404 28.9585H110.259C109.977 30.4614 108.764 31.7886 106.47 31.7886ZM104.326 26.0669H108.457V26.0493C108.457 24.731 107.639 23.6938 106.4 23.6938C105.143 23.6938 104.326 24.731 104.326 26.0493V26.0669Z" fill="white"/>
</svg>
