<svg width="43" height="42" viewBox="0 0 43 42" fill="none" xmlns="http://www.w3.org/2000/svg">
<circle cx="21.4171" cy="21" r="20.7452" fill="#213147"/>
<path d="M11.0352 15.9494V25.7313C11.0352 26.3602 11.3645 26.9291 11.9135 27.2485L20.3879 32.1395C20.9269 32.4489 21.5956 32.4489 22.1346 32.1395L30.609 27.2485C31.148 26.9391 31.4873 26.3602 31.4873 25.7313V15.9494C31.4873 15.3206 31.1579 14.7516 30.609 14.4322L22.1346 9.54127C21.5956 9.23185 20.9269 9.23185 20.3879 9.54127L11.9135 14.4322C11.3745 14.7417 11.0451 15.3206 11.0451 15.9494H11.0352Z" fill="#213147"/>
<path d="M23.1072 22.7369L21.8994 26.0508C21.8695 26.1406 21.8695 26.2404 21.8994 26.3403L23.9756 32.0397L26.3811 30.6523L23.4965 22.7369C23.4266 22.5573 23.177 22.5573 23.1072 22.7369Z" fill="#12AAFF"/>
<path d="M25.5316 17.1672C25.4617 16.9876 25.2122 16.9876 25.1423 17.1672L23.9346 20.4811C23.9046 20.5709 23.9046 20.6707 23.9346 20.7706L27.3383 30.1033L29.7438 28.7159L25.5316 17.1772V17.1672Z" fill="#12AAFF"/>
<path d="M21.2568 9.9106C21.3167 9.9106 21.3766 9.93057 21.4265 9.96051L30.5896 15.2507C30.6994 15.3106 30.7592 15.4304 30.7592 15.5502V26.1306C30.7592 26.2504 30.6894 26.3702 30.5896 26.4301L21.4265 31.7203C21.3766 31.7502 21.3167 31.7702 21.2568 31.7702C21.1969 31.7702 21.137 31.7502 21.0871 31.7203L11.9241 26.4301C11.8143 26.3702 11.7544 26.2504 11.7544 26.1306V15.5402C11.7544 15.4204 11.8243 15.3006 11.9241 15.2407L21.0871 9.95053C21.137 9.92059 21.1969 9.90062 21.2568 9.90062V9.9106ZM21.2568 8.36346C20.9274 8.36346 20.608 8.44332 20.3086 8.613L11.1455 13.9032C10.5566 14.2426 10.1973 14.8614 10.1973 15.5402V26.1206C10.1973 26.7994 10.5566 27.4182 11.1455 27.7576L20.3086 33.0478C20.598 33.2175 20.9274 33.2974 21.2568 33.2974C21.5862 33.2974 21.9056 33.2175 22.2051 33.0478L31.3681 27.7576C31.957 27.4182 32.3164 26.7994 32.3164 26.1206V15.5402C32.3164 14.8614 31.957 14.2426 31.3681 13.9032L22.1951 8.613C21.9056 8.44332 21.5762 8.36346 21.2468 8.36346H21.2568Z" fill="#9DCCED"/>
<path d="M15.1895 30.1133L16.0379 27.7975L17.7347 29.2049L16.1477 30.6622L15.1895 30.1133Z" fill="#213147"/>
<path d="M20.479 14.7917H18.1533C17.9836 14.7917 17.8239 14.9015 17.764 15.0612L12.7832 28.7159L15.1888 30.1033L20.6786 15.0612C20.7285 14.9214 20.6287 14.7817 20.489 14.7817L20.479 14.7917Z" fill="white"/>
<path d="M24.5529 14.7917H22.2272C22.0575 14.7917 21.8978 14.9015 21.8379 15.0612L16.1484 30.6523L18.554 32.0398L24.7425 15.0612C24.7925 14.9214 24.6926 14.7817 24.5529 14.7817V14.7917Z" fill="white"/>
</svg>
