<svg width="25" height="26" viewBox="0 0 25 26" fill="none" xmlns="http://www.w3.org/2000/svg">
<g clip-path="url(#clip0_275_65)">
<path d="M20.2096 4.46008H4.7738V19.0505H20.2096V4.46008Z" fill="white"/>
<path fill-rule="evenodd" clip-rule="evenodd" d="M24.9917 13C24.9917 20.1702 19.399 25.9827 12.5 25.9827C5.60102 25.9827 0.00830078 20.1702 0.00830078 13C0.00830078 5.82983 5.60102 0.0172729 12.5 0.0172729C19.399 0.0172729 24.9917 5.82983 24.9917 13ZM8.9602 18.1664H6.53591C6.0265 18.1664 5.77487 18.1664 5.62144 18.0645C5.45572 17.9528 5.35446 17.7678 5.34218 17.5636C5.33297 17.3756 5.4588 17.1458 5.71043 16.6866L11.6963 5.72094C11.951 5.25529 12.0799 5.02246 12.2425 4.93636C12.4174 4.84387 12.6261 4.84387 12.801 4.93636C12.9637 5.02246 13.0926 5.25529 13.3473 5.72094L14.5778 7.95348L14.5841 7.96487C14.8592 8.46442 14.9987 8.71775 15.0596 8.98363C15.1271 9.27386 15.1271 9.58004 15.0596 9.87027C14.9982 10.1382 14.8601 10.3933 14.5809 10.9004L11.4367 16.677L11.4285 16.6918C11.1516 17.1955 11.0113 17.4508 10.8168 17.6433C10.605 17.8539 10.3503 18.0069 10.0711 18.0932C9.81637 18.1664 9.53099 18.1664 8.9602 18.1664ZM15.0823 18.1664H18.556C19.0685 18.1664 19.3263 18.1664 19.4799 18.0613C19.6455 17.9497 19.7498 17.7614 19.7591 17.5574C19.7679 17.3754 19.6449 17.1546 19.4037 16.722C19.3954 16.7073 19.387 16.6923 19.3786 16.6771L17.6385 13.5834L17.6187 13.5486C17.3742 13.1189 17.2508 12.9019 17.0923 12.818C16.9175 12.7255 16.7117 12.7255 16.5369 12.818C16.3773 12.9041 16.2484 13.1305 15.9937 13.5866L14.2599 16.6803L14.254 16.6909C14.0001 17.1463 13.8733 17.3738 13.8825 17.5605C13.8947 17.7647 13.996 17.9528 14.1617 18.0645C14.3121 18.1664 14.5698 18.1664 15.0823 18.1664Z" fill="#E84142"/>
</g>
<defs>
<clipPath id="clip0_275_65">
<rect width="25" height="26" fill="white"/>
</clipPath>
</defs>
</svg>
