<svg width="33" height="32" viewBox="0 0 33 32" fill="none" xmlns="http://www.w3.org/2000/svg">
<circle cx="16.9104" cy="16" r="16" fill="#FED118"/>
<path d="M11.5375 16.5L11.5464 19.788L14.3402 21.432V23.357L9.9114 20.7595V15.5385L11.5375 16.5ZM11.5375 13.212V15.128L9.9104 14.1655V12.2495L11.5375 11.287L13.1725 12.2495L11.5375 13.212ZM15.507 12.2495L17.1341 11.287L18.7691 12.2495L17.1341 13.212L15.507 12.2495Z" fill="white"/>
<path d="M12.7131 19.1065V17.1815L14.3402 18.144V20.06L12.7131 19.1065ZM15.5069 22.1215L17.134 23.084L18.769 22.1215V24.0375L17.134 25L15.5069 24.0375V22.1215ZM21.1025 12.2495L22.7296 11.287L24.3646 12.2495V14.1655L22.7296 15.128V13.212L21.1025 12.2495ZM22.7296 19.788L22.7386 16.5L24.3656 15.5375V20.7585L19.9368 23.356V21.431L22.7296 19.788Z" fill="white"/>
<path d="M21.5629 19.1066L19.9358 20.0601V18.1441L21.5629 17.1816V19.1066Z" fill="white"/>
<path d="M21.5629 13.8935L21.5718 15.8185L18.77 17.4625V20.7585L17.143 21.712L15.5159 20.7585V17.4625L12.7141 15.8185V13.8935L14.3482 12.931L17.133 14.583L19.9348 12.931L21.5698 13.8935H21.5629ZM12.7131 10.6065L17.134 8L21.5629 10.6065L19.9358 11.569L17.134 9.91701L14.3402 11.569L12.7131 10.6065Z" fill="white"/>
</svg>
