<svg width="33" height="32" viewBox="0 0 33 32" fill="none" xmlns="http://www.w3.org/2000/svg">
<circle cx="16.9102" cy="16" r="16" fill="#7703CC"/>
<path fill-rule="evenodd" clip-rule="evenodd" d="M8.91016 21.0456C9.1409 21.1768 9.44374 21.3775 9.66006 21.5318C9.73938 21.5897 9.82951 21.6399 9.91604 21.6977C9.96291 21.7286 9.99175 21.744 10.035 21.7749C10.0566 21.7903 10.0747 21.8058 10.0963 21.8174C10.1215 21.8328 10.136 21.8405 10.1612 21.8559L12.9373 23.685C12.9769 23.7082 13.013 23.7352 13.0563 23.7622L15.5764 25.4253C15.6052 25.4446 15.616 25.4485 15.6413 25.4678L16.8454 26.2589C16.8995 26.2897 16.9212 26.3283 16.9825 26.3322V16.2607L16.6003 16.0253C16.5642 16.006 16.5426 15.9906 16.5066 15.9674L16.2073 15.7822C15.7819 15.5429 15.3853 15.2497 14.9563 15.0104C14.913 14.9873 14.8986 14.9718 14.8517 14.9487L14.4695 14.7133C14.3758 14.6515 13.9504 14.3776 13.8747 14.3583V15.9481L15.4394 16.9167C15.4826 16.9437 15.5115 16.963 15.5511 16.9861C15.5944 17.0093 15.616 17.0363 15.6701 17.0479V23.8664C15.3961 23.6696 15.1041 23.4921 14.8229 23.3107L14.1415 22.8592C13.8639 22.6586 13.5646 22.4926 13.287 22.2958C13.2546 22.2727 13.2365 22.265 13.2041 22.2418L12.602 21.8444C12.5371 21.8058 12.4902 21.7749 12.4289 21.7286C12.209 21.5704 11.9711 21.4315 11.7475 21.2771C11.6862 21.2347 11.6358 21.2077 11.5745 21.1652C11.2428 20.926 10.8859 20.7099 10.547 20.4899C10.5181 20.4706 10.4929 20.4513 10.4677 20.432L10.2045 20.2584V12.0739C10.154 12.0391 10.1035 12.0083 10.0458 11.9735C9.98814 11.9388 9.94488 11.9118 9.8872 11.8732L9.076 11.3793C9.01471 11.3445 8.96784 11.306 8.91016 11.2751V21.0456Z" fill="white"/>
<path fill-rule="evenodd" clip-rule="evenodd" d="M17.7611 16.2452V20.1156L18.2406 19.8262C18.4605 19.7027 18.6624 19.5522 18.8824 19.4288C18.922 19.4056 18.9364 19.3979 18.9653 19.3747C18.9941 19.3554 19.023 19.3439 19.0518 19.3284V17.0479C19.0951 17.0363 19.1095 17.0286 19.142 17.0054C19.1744 16.9823 19.196 16.9746 19.2285 16.9553C19.3979 16.8511 19.5638 16.7276 19.7368 16.635C19.9712 16.5115 20.1947 16.3571 20.4182 16.2144C20.4759 16.1796 20.5228 16.1488 20.5841 16.1102L20.923 15.9057C20.959 15.8825 20.9698 15.8748 21.0059 15.8516C21.1537 15.7706 21.2907 15.6626 21.4421 15.5777L21.608 15.4735C21.6368 15.4542 21.6657 15.4426 21.6945 15.4272L22.8013 14.7403C23.0357 14.6091 23.252 14.4509 23.4827 14.3197L23.8253 14.1036C23.9406 14.0303 24.0524 13.9647 24.1678 13.8875C24.229 13.8489 24.2795 13.8219 24.3336 13.7833L24.5139 13.6753V20.2777C24.4634 20.2893 24.449 20.3086 24.4057 20.3356L24.0884 20.544C24.056 20.5671 24.0308 20.5864 23.9911 20.6134C23.9478 20.6404 23.919 20.6636 23.8829 20.6867C23.8433 20.7099 23.8216 20.7292 23.782 20.7523L23.4611 20.9569C23.1727 21.1344 22.9023 21.335 22.6139 21.5125L21.7702 22.072C21.7306 22.0991 21.7089 22.1106 21.6693 22.1376C21.2907 22.4116 20.8869 22.6393 20.5048 22.9056C20.4363 22.9557 20.3642 22.9982 20.2957 23.0445L19.2393 23.7391C19.2068 23.7583 19.1708 23.7815 19.1383 23.8047C18.8247 24.0246 18.4966 24.2137 18.1829 24.4336L17.7539 24.7153V26.336C17.826 26.3167 17.9414 26.2241 18.0063 26.1817C18.0928 26.1238 18.1757 26.0775 18.2623 26.0158C18.5038 25.8421 18.767 25.6993 19.0086 25.5257C19.0554 25.4948 19.0915 25.4678 19.1347 25.4408L19.7729 25.0202C19.8161 24.9932 19.8486 24.97 19.8919 24.943L23.2881 22.7049C23.3349 22.674 23.3746 22.647 23.4142 22.62L25.682 21.1266C25.7253 21.0958 25.7685 21.0688 25.8118 21.0456V11.2905C25.7469 11.306 25.7361 11.3291 25.6856 11.36C25.6387 11.387 25.6063 11.4063 25.563 11.4333L24.8095 11.9002C24.5535 12.0469 24.3156 12.2282 24.056 12.3671L22.0406 13.6097C21.9505 13.6637 21.8784 13.7139 21.7919 13.7679L21.4205 13.9994C21.1573 14.1422 20.7752 14.3853 20.5336 14.5474C20.4903 14.5782 20.4543 14.5898 20.411 14.6207L19.5926 15.13C19.5566 15.1493 19.5638 15.1493 19.5277 15.1725L19.2717 15.323C19.1203 15.4079 18.9869 15.5121 18.8355 15.597C18.7994 15.6163 18.7994 15.624 18.7706 15.6394L18.5146 15.7899C18.3452 15.8787 17.8981 16.2144 17.7611 16.2452Z" fill="white"/>
<path fill-rule="evenodd" clip-rule="evenodd" d="M9.41113 10.6267C9.46161 10.6383 9.49045 10.6692 9.53732 10.6962C9.70677 10.7926 9.85819 10.9084 10.0312 11.001L11.4013 11.85C12.0538 12.2744 12.7316 12.6526 13.3878 13.0771L13.5104 13.1504C13.5572 13.1774 13.5897 13.2005 13.633 13.2237L14.3793 13.6868C14.4117 13.706 14.4081 13.706 14.4333 13.7215C14.783 13.9492 15.1508 14.1421 15.4969 14.3775L16.6073 15.0605C16.6506 15.0875 16.6831 15.1107 16.7263 15.1377C16.8561 15.2226 17.3212 15.5235 17.3681 15.5235C17.4366 15.5235 17.8331 15.2534 17.9341 15.1878L18.1288 15.0643C18.1937 15.0219 18.2514 14.9949 18.3163 14.9524C18.3848 14.91 18.4352 14.8791 18.5037 14.8367L18.8823 14.5974C18.9472 14.555 19.0049 14.5241 19.0662 14.4817L19.6394 14.1344C19.6755 14.1151 19.7007 14.0958 19.7331 14.0765C19.7656 14.0533 19.7872 14.0418 19.8269 14.0186L20.209 13.7832C20.2703 13.7446 20.3388 13.6868 20.4109 13.6675C20.4001 13.6212 20.3929 13.625 20.3569 13.6019L19.1347 12.8494C18.6479 13.1234 18.1865 13.4436 17.7034 13.7253C17.6637 13.7485 17.6312 13.7716 17.5952 13.7987C17.5195 13.8488 17.451 13.8913 17.3717 13.9376L16.6362 13.4822C16.3802 13.3433 16.1459 13.162 15.8899 13.0192C15.8322 12.9844 15.7745 12.9459 15.724 12.915L14.2314 11.9966C14.2026 11.9773 14.1774 11.9619 14.1485 11.9426C14.1161 11.9194 14.0944 11.9117 14.062 11.8924L12.1512 10.7116C12.1151 10.6885 12.1115 10.6769 12.061 10.6653C12.1007 10.6036 12.1476 10.5997 12.2125 10.5573C12.2665 10.5187 12.317 10.4994 12.3747 10.4646L14.0367 9.5038C14.0728 9.48065 14.0728 9.47679 14.1089 9.4575C14.1449 9.4382 14.1629 9.43048 14.1954 9.40733C14.2531 9.36874 14.3108 9.34173 14.3684 9.31086L16.4415 8.11463C16.4775 8.09533 16.4884 8.08376 16.5244 8.06061L17.3681 7.57825C17.4149 7.57825 18.0531 7.97571 18.2009 8.05675C18.2369 8.07604 18.2622 8.08762 18.2982 8.11077C18.3415 8.13778 18.3523 8.14936 18.4028 8.17251L20.6958 9.49608C20.8977 9.63114 21.5106 9.97458 21.7269 10.0903C21.972 10.2215 22.2064 10.3798 22.4516 10.511L23.8144 11.302C23.8612 11.329 23.8756 11.3367 23.9189 11.3637C24.0812 11.4679 24.0848 11.3792 24.3479 11.2248L24.8347 10.9277C24.9212 10.8775 25.2493 10.6537 25.325 10.6344C25.3106 10.5843 25.2673 10.565 25.224 10.538L24.7301 10.2486C24.4813 10.1135 24.2326 9.94756 23.9838 9.82022L23.4899 9.53081C23.3204 9.4382 23.151 9.35331 22.9923 9.24526L20.5011 7.80592C20.4506 7.77891 20.4218 7.76348 20.3785 7.73261L19.3762 7.15378C19.3293 7.12677 19.3005 7.10748 19.2536 7.08047C19.2284 7.06503 19.2176 7.06117 19.196 7.0496L17.88 6.28555C17.7971 6.23153 17.4113 6 17.3645 6C17.3248 6 17.0472 6.17751 16.9859 6.20838L14.1341 7.85995C14.0872 7.8831 14.0512 7.90239 14.0079 7.92941L12.0106 9.08319C11.9637 9.1102 11.9421 9.1295 11.888 9.15651L11.7077 9.2607C11.6717 9.27999 11.6717 9.28771 11.6428 9.30314C11.6032 9.33015 11.5599 9.34173 11.5166 9.3726L11.1345 9.59255C11.084 9.61957 11.0588 9.64272 11.0119 9.66587L10.4314 10.0054C10.4098 10.017 10.4098 10.0132 10.3918 10.0247C10.3089 10.0749 10.2223 10.1096 10.143 10.1675C10.0961 10.1984 10.0673 10.21 10.0168 10.237L9.458 10.5688C9.41474 10.5958 9.42555 10.5727 9.41113 10.6267Z" fill="white"/>
</svg>
