<svg width="26" height="29" viewBox="0 0 26 29" fill="none" xmlns="http://www.w3.org/2000/svg">
<path fill-rule="evenodd" clip-rule="evenodd" d="M0 21.4556C0.352182 21.6427 0.814422 21.9288 1.14459 22.1489C1.26566 22.2315 1.40323 22.303 1.5353 22.3855C1.60683 22.4296 1.65085 22.4516 1.71689 22.4956C1.74991 22.5176 1.77742 22.5396 1.81044 22.5561C1.84896 22.5781 1.87097 22.5891 1.90949 22.6112L6.14668 25.2195C6.20721 25.2525 6.26224 25.291 6.32828 25.3296L10.1748 27.7013C10.2188 27.7288 10.2353 27.7343 10.2738 27.7618L12.1118 28.8899C12.1943 28.9339 12.2273 28.989 12.3209 28.9945V14.632L11.7376 14.2963C11.6825 14.2688 11.6495 14.2468 11.5945 14.2138L11.1378 13.9497C10.4884 13.6085 9.88312 13.1903 9.22828 12.8491C9.16224 12.8161 9.14023 12.7941 9.0687 12.7611L8.48539 12.4254C8.34232 12.3373 7.69298 11.9466 7.57742 11.9191V14.1863L9.96566 15.5675C10.0317 15.606 10.0757 15.6335 10.1362 15.6666C10.2023 15.6996 10.2353 15.7381 10.3178 15.7546V25.4781C9.89963 25.1975 9.4539 24.9444 9.02467 24.6857L7.98463 24.0419C7.56092 23.7557 7.10418 23.5191 6.68046 23.2385C6.63093 23.2055 6.60342 23.1945 6.55389 23.1614L5.63492 22.5946C5.53587 22.5396 5.46433 22.4956 5.37078 22.4296C5.03511 22.2039 4.67192 22.0058 4.33074 21.7857C4.23719 21.7252 4.16015 21.6867 4.06661 21.6261C3.56034 21.285 3.01556 20.9768 2.49829 20.6631C2.45427 20.6356 2.41575 20.6081 2.37723 20.5806L1.97552 20.333V8.66143C1.89848 8.6119 1.82144 8.56788 1.7334 8.51836C1.64535 8.46883 1.57932 8.43031 1.49127 8.37528L0.253131 7.67092C0.159583 7.62139 0.0880456 7.56636 0 7.52234V21.4556Z" fill="#D5D7D9"/>
<path fill-rule="evenodd" clip-rule="evenodd" d="M13.5091 14.6101V20.1295L14.2409 19.7167C14.5766 19.5406 14.8848 19.326 15.2204 19.1499C15.281 19.1169 15.303 19.1059 15.347 19.0729C15.391 19.0454 15.435 19.0289 15.4791 19.0069V15.7547C15.5451 15.7382 15.5671 15.7272 15.6166 15.6942C15.6662 15.6611 15.6992 15.6501 15.7487 15.6226C16.0073 15.474 16.2605 15.2979 16.5246 15.1659C16.8823 14.9898 17.2235 14.7697 17.5647 14.5661C17.6527 14.5165 17.7242 14.4725 17.8178 14.4175L18.3351 14.1258C18.3901 14.0928 18.4066 14.0818 18.4616 14.0488C18.6872 13.9332 18.8963 13.7792 19.1275 13.6581L19.3806 13.5095C19.4246 13.482 19.4686 13.4655 19.5127 13.4435L21.202 12.464C21.5597 12.2769 21.8899 12.0513 22.2421 11.8642L22.7648 11.556C22.9409 11.4515 23.1115 11.3579 23.2876 11.2479C23.3812 11.1928 23.4582 11.1543 23.5407 11.0993L23.8159 10.9452V20.3606C23.7388 20.3771 23.7168 20.4046 23.6508 20.4431L23.1666 20.7403C23.117 20.7733 23.0785 20.8008 23.018 20.8393C22.9519 20.8778 22.9079 20.9109 22.8529 20.9439C22.7924 20.9769 22.7593 21.0044 22.6988 21.0374L22.2091 21.3291C21.7688 21.5822 21.3561 21.8684 20.9159 22.1215L19.6282 22.9194C19.5677 22.9579 19.5347 22.9744 19.4741 23.0129C18.8963 23.4036 18.28 23.7283 17.6967 24.108C17.5922 24.1796 17.4821 24.2401 17.3776 24.3061L15.7652 25.2966C15.7157 25.3241 15.6607 25.3572 15.6111 25.3902C15.1324 25.7038 14.6316 25.9735 14.1529 26.2871L13.498 26.6888V29C13.6081 28.9725 13.7842 28.8405 13.8832 28.7799C14.0153 28.6974 14.1419 28.6314 14.2739 28.5433C14.6426 28.2957 15.0443 28.0921 15.413 27.8444C15.4846 27.8004 15.5396 27.7619 15.6056 27.7234L16.5796 27.1236C16.6457 27.0851 16.6952 27.052 16.7612 27.0135L21.9449 23.8219C22.0165 23.7778 22.077 23.7393 22.1375 23.7008L25.5988 21.5712C25.6648 21.5272 25.7309 21.4887 25.7969 21.4556V7.54443C25.6979 7.56644 25.6814 7.59946 25.6043 7.64348C25.5328 7.682 25.4833 7.70952 25.4172 7.74804L24.2671 8.41388C23.8764 8.62299 23.5132 8.88163 23.117 9.07973L20.0409 10.8516C19.9034 10.9287 19.7933 11.0002 19.6612 11.0773L19.0944 11.4074C18.6927 11.611 18.1094 11.9577 17.7407 12.1888C17.6747 12.2329 17.6197 12.2494 17.5536 12.2934L16.3045 13.0198C16.2495 13.0473 16.2605 13.0473 16.2054 13.0803L15.8147 13.2949C15.5836 13.416 15.38 13.5646 15.1489 13.6856C15.0939 13.7131 15.0939 13.7241 15.0499 13.7461L14.6591 13.9608C14.4005 14.0873 13.7182 14.5661 13.5091 14.6101Z" fill="#D5D7D9"/>
<path fill-rule="evenodd" clip-rule="evenodd" d="M0.765625 6.59792C0.842665 6.61443 0.886688 6.65845 0.958225 6.69697C1.21686 6.83454 1.44798 6.99963 1.71212 7.13169L3.8032 8.34232C4.79921 8.94763 5.83375 9.48691 6.83527 10.0922L7.02237 10.1968C7.0939 10.2353 7.14343 10.2683 7.20946 10.3013L8.34855 10.9617C8.39808 10.9892 8.39257 10.9892 8.4311 11.0112C8.96487 11.3359 9.52616 11.611 10.0544 11.9467L11.7493 12.9207C11.8153 12.9592 11.8649 12.9922 11.9309 13.0307C12.129 13.1518 12.8389 13.581 12.9104 13.581C13.015 13.581 13.6203 13.1958 13.7744 13.1023L14.0715 12.9262C14.1706 12.8657 14.2586 12.8271 14.3577 12.7666C14.4622 12.7061 14.5393 12.6621 14.6438 12.6015L15.2216 12.2604C15.3207 12.1998 15.4087 12.1558 15.5023 12.0953L16.3772 11.6C16.4322 11.5725 16.4708 11.545 16.5203 11.5175C16.5698 11.4844 16.6028 11.4679 16.6634 11.4349L17.2467 11.0992C17.3402 11.0442 17.4448 10.9617 17.5548 10.9342C17.5383 10.8681 17.5273 10.8736 17.4723 10.8406L15.6068 9.76756C14.8639 10.1583 14.1596 10.615 13.4222 11.0167C13.3616 11.0497 13.3121 11.0827 13.2571 11.1213C13.1415 11.1928 13.037 11.2533 12.9159 11.3194L11.7933 10.67C11.4026 10.4719 11.0449 10.2133 10.6542 10.0097C10.5662 9.96016 10.4782 9.90513 10.4011 9.86111L8.12294 8.55143C8.07891 8.52391 8.04039 8.5019 7.99637 8.47439C7.94684 8.44137 7.91383 8.43037 7.8643 8.40285L4.94779 6.71898C4.89276 6.68596 4.88726 6.66945 4.81022 6.65295C4.87075 6.5649 4.94229 6.5594 5.04134 6.49887C5.12388 6.44384 5.20092 6.41632 5.28897 6.3668L7.82578 4.99659C7.88081 4.96357 7.88081 4.95807 7.93584 4.93055C7.99087 4.90304 8.01838 4.89203 8.06791 4.85902C8.15595 4.80399 8.244 4.76547 8.33204 4.72145L11.4962 3.01556C11.5512 2.98805 11.5677 2.97154 11.6227 2.93852L12.9104 2.25067C12.982 2.25067 13.956 2.81746 14.1816 2.93302C14.2366 2.96053 14.2751 2.97704 14.3301 3.01006C14.3962 3.04858 14.4127 3.06509 14.4897 3.0981L17.9895 4.98558C18.2977 5.17818 19.2332 5.66794 19.5634 5.83302C19.9376 6.02012 20.2952 6.24574 20.6694 6.43283L22.7495 7.56092C22.821 7.59944 22.8431 7.61044 22.9091 7.64896C23.1567 7.79754 23.1622 7.67097 23.5639 7.45086L24.3068 7.02714C24.4389 6.9556 24.9396 6.63644 25.0552 6.60892C25.0332 6.53739 24.9672 6.50987 24.9011 6.47135L24.1472 6.05864C23.7675 5.86604 23.3878 5.62942 23.0081 5.44782L22.2543 5.03511C21.9956 4.90304 21.737 4.78198 21.4949 4.6279L17.6924 2.57533C17.6154 2.53681 17.5713 2.5148 17.5053 2.47078L15.9755 1.64535C15.904 1.60683 15.8599 1.57932 15.7884 1.5408C15.7499 1.51879 15.7334 1.51328 15.7004 1.49678L13.6918 0.407211C13.5653 0.330171 12.9764 0 12.9049 0C12.8444 0 12.4207 0.253131 12.3271 0.297154L7.97436 2.65237C7.90282 2.68539 7.84779 2.71291 7.78176 2.75143L4.73318 4.39678C4.66164 4.4353 4.62863 4.46281 4.54608 4.50133L4.27094 4.64991C4.21591 4.67742 4.21591 4.68843 4.17189 4.71044C4.11136 4.74896 4.04532 4.76547 3.97929 4.80949L3.39599 5.12315C3.31895 5.16167 3.28043 5.19469 3.20889 5.22771L2.32293 5.71196C2.28991 5.72847 2.28991 5.72296 2.2624 5.73947C2.13583 5.81101 2.00377 5.86054 1.8827 5.94308C1.81117 5.9871 1.76714 6.00361 1.6901 6.04213L0.837162 6.51537C0.771128 6.55389 0.787636 6.52088 0.765625 6.59792Z" fill="#D5D7D9"/>
</svg>
