<svg width="70" height="70" viewBox="0 0 70 70" fill="none" xmlns="http://www.w3.org/2000/svg">
<path fill-rule="evenodd" clip-rule="evenodd" d="M35 0C54.33 0 70 15.67 70 35C70 54.33 54.33 70 35 70C15.67 70 0 54.33 0 35C0 15.67 15.67 0 35 0Z" fill="#2785E8"/>
<path fill-rule="evenodd" clip-rule="evenodd" d="M14.4868 46.0458C15.0445 46.342 15.7765 46.7952 16.2993 47.1437C16.491 47.2744 16.7088 47.3877 16.918 47.5184C17.0312 47.5881 17.101 47.623 17.2055 47.6927C17.2578 47.7275 17.3014 47.7624 17.3537 47.7885C17.4147 47.8234 17.4495 47.8408 17.5105 47.8757L24.2201 52.006C24.316 52.0583 24.4031 52.1193 24.5077 52.1803L30.5986 55.9359C30.6683 55.9795 30.6945 55.9882 30.7555 56.0318L33.6659 57.8181C33.7966 57.8878 33.8489 57.975 33.997 57.9837V35.2407L33.0734 34.7091C32.9862 34.6655 32.9339 34.6307 32.8468 34.5784L32.1236 34.1601C31.0953 33.6199 30.1368 32.9576 29.0999 32.4174C28.9953 32.3651 28.9604 32.3302 28.8472 32.278L27.9235 31.7464C27.6969 31.607 26.6687 30.9883 26.4857 30.9448V34.5348L30.2675 36.722C30.3721 36.783 30.4418 36.8266 30.5376 36.8789C30.6422 36.9311 30.6945 36.9921 30.8252 37.0183V52.4156C30.1629 51.9712 29.4571 51.5703 28.7775 51.1608L27.1305 50.1413C26.4596 49.6881 25.7363 49.3134 25.0654 48.869C24.9869 48.8168 24.9434 48.7993 24.865 48.7471L23.4097 47.8495C23.2529 47.7624 23.1396 47.6927 22.9915 47.5881C22.4599 47.2309 21.8848 46.9172 21.3446 46.5686C21.1964 46.4727 21.0745 46.4118 20.9263 46.3159C20.1246 45.7756 19.262 45.2877 18.4429 44.791C18.3732 44.7474 18.3122 44.7038 18.2512 44.6603L17.6151 44.2682V25.7862C17.4931 25.7078 17.3711 25.638 17.2317 25.5596C17.0922 25.4812 16.9877 25.4202 16.8483 25.3331L14.8877 24.2177C14.7395 24.1393 14.6262 24.0521 14.4868 23.9824V46.0458Z" fill="white"/>
<path fill-rule="evenodd" clip-rule="evenodd" d="M35.8788 35.2051V43.9451L37.0377 43.2915C37.5692 43.0127 38.0572 42.6729 38.5887 42.394C38.6846 42.3417 38.7195 42.3243 38.7892 42.272C38.8589 42.2285 38.9286 42.2023 38.9983 42.1675V37.0176C39.1029 36.9915 39.1377 36.974 39.2161 36.9217C39.2946 36.8695 39.3468 36.852 39.4253 36.8085C39.8348 36.5732 40.2357 36.2944 40.6539 36.0852C41.2203 35.8064 41.7606 35.4578 42.3008 35.1354C42.4402 35.057 42.5535 34.9873 42.7017 34.9001L43.5208 34.4383C43.6079 34.386 43.634 34.3686 43.7212 34.3163C44.0784 34.1333 44.4096 33.8893 44.7755 33.6976L45.1764 33.4624C45.2461 33.4188 45.3158 33.3927 45.3855 33.3578L48.0606 31.8067C48.627 31.5105 49.1499 31.1532 49.7076 30.8569L50.5354 30.369C50.8142 30.2034 51.0843 30.0553 51.3632 29.881C51.5113 29.7939 51.6333 29.7329 51.764 29.6457L52.1997 29.4017V44.3111C52.0777 44.3372 52.0429 44.3808 51.9383 44.4418L51.1715 44.9123C51.0931 44.9646 51.0321 45.0082 50.9362 45.0692C50.8316 45.1302 50.7619 45.1824 50.6748 45.2347C50.5789 45.287 50.5267 45.3306 50.4308 45.3828L49.6553 45.8447C48.9582 46.2455 48.3046 46.6986 47.6075 47.0995L45.5685 48.363C45.4727 48.424 45.4204 48.4501 45.3245 48.5111C44.4096 49.1298 43.4336 49.6439 42.51 50.2452C42.3444 50.3584 42.1701 50.4543 42.0046 50.5589L39.4514 52.1273C39.373 52.1709 39.2859 52.2232 39.2074 52.2755C38.4493 52.7722 37.6564 53.1991 36.8983 53.6958L35.8613 54.3319V57.9917C36.0356 57.9482 36.3144 57.739 36.4713 57.6432C36.6804 57.5125 36.8808 57.4079 37.09 57.2685C37.6738 56.8764 38.3099 56.5539 38.8937 56.1618C39.007 56.0921 39.0941 56.0311 39.1987 55.9701L40.7411 55.0203C40.8456 54.9593 40.924 54.907 41.0286 54.846L49.237 49.792C49.3503 49.7223 49.4461 49.6613 49.542 49.6003L55.023 46.2281C55.1275 46.1584 55.2321 46.0974 55.3367 46.0451V24.0166C55.1798 24.0515 55.1537 24.1037 55.0317 24.1734C54.9184 24.2344 54.84 24.278 54.7354 24.339L52.9142 25.3934C52.2956 25.7245 51.7204 26.1341 51.0931 26.4478L46.222 29.2536C46.0042 29.3756 45.8299 29.4889 45.6208 29.6109L44.7233 30.1337C44.0872 30.4561 43.1635 31.0051 42.5797 31.3711C42.4751 31.4408 42.388 31.4669 42.2834 31.5366L40.3054 32.6868C40.2182 32.7304 40.2357 32.7304 40.1485 32.7827L39.5298 33.1225C39.1639 33.3142 38.8414 33.5495 38.4755 33.7412C38.3883 33.7848 38.3883 33.8022 38.3186 33.8371L37.6999 34.1769C37.2904 34.3773 36.2099 35.1354 35.8788 35.2051Z" fill="white"/>
<path fill-rule="evenodd" clip-rule="evenodd" d="M15.7007 22.5187C15.8227 22.5448 15.8924 22.6145 16.0057 22.6755C16.4152 22.8933 16.7812 23.1548 17.1995 23.3639L20.5107 25.2809C22.0879 26.2394 23.7261 27.0934 25.312 28.0519L25.6083 28.2175C25.7216 28.2785 25.8 28.3308 25.9045 28.383L27.7083 29.4287C27.7867 29.4723 27.778 29.4723 27.839 29.5071C28.6842 30.0212 29.5731 30.4569 30.4096 30.9885L33.0934 32.5308C33.198 32.5918 33.2764 32.6441 33.381 32.7051C33.6947 32.8968 34.8188 33.5765 34.932 33.5765C35.0976 33.5765 36.0561 32.9665 36.3001 32.8184L36.7707 32.5395C36.9275 32.4437 37.0669 32.3827 37.2238 32.2868C37.3893 32.191 37.5113 32.1213 37.6769 32.0254L38.5918 31.4852C38.7487 31.3893 38.8881 31.3196 39.0362 31.2237L40.4217 30.4395C40.5089 30.3959 40.5699 30.3524 40.6483 30.3088C40.7267 30.2565 40.779 30.2304 40.8749 30.1781L41.7985 29.6465C41.9466 29.5594 42.1122 29.4287 42.2865 29.3851C42.2603 29.2806 42.2429 29.2893 42.1558 29.237L39.2018 27.5378C38.0254 28.1565 36.9101 28.8797 35.7424 29.5158C35.6466 29.5681 35.5681 29.6204 35.481 29.6814C35.298 29.7947 35.1325 29.8905 34.9408 29.9951L33.1631 28.9669C32.5445 28.6532 31.9781 28.2436 31.3594 27.9212C31.22 27.8428 31.0805 27.7556 30.9585 27.6859L27.351 25.6121C27.2813 25.5685 27.2203 25.5336 27.1506 25.4901C27.0722 25.4378 27.0199 25.4203 26.9415 25.3768L22.3232 22.7104C22.236 22.6581 22.2273 22.6319 22.1053 22.6058C22.2012 22.4664 22.3145 22.4577 22.4713 22.3618C22.602 22.2747 22.724 22.2311 22.8634 22.1527L26.8805 19.9829C26.9676 19.9307 26.9676 19.9219 27.0548 19.8784C27.1419 19.8348 27.1855 19.8174 27.2639 19.7651C27.4033 19.678 27.5427 19.617 27.6822 19.5472L32.6926 16.846C32.7797 16.8024 32.8059 16.7763 32.893 16.724L34.932 15.6347C35.0453 15.6347 36.5877 16.5323 36.9449 16.7153C37.0321 16.7588 37.0931 16.785 37.1802 16.8373C37.2848 16.8982 37.3109 16.9244 37.4329 16.9767L42.9749 19.9655C43.4628 20.2705 44.9442 21.046 45.467 21.3074C46.0596 21.6037 46.626 21.961 47.2185 22.2572L50.5123 24.0436C50.6256 24.1046 50.6604 24.122 50.765 24.183C51.1571 24.4183 51.1659 24.2178 51.802 23.8693L52.9783 23.1983C53.1875 23.085 53.9804 22.5796 54.1634 22.5361C54.1285 22.4228 54.024 22.3792 53.9194 22.3182L52.7256 21.6647C52.1244 21.3597 51.5231 20.985 50.9219 20.6975L49.7281 20.0439C49.3185 19.8348 48.909 19.6431 48.5256 19.3991L42.5043 16.1489C42.3823 16.0879 42.3126 16.053 42.2081 15.9833L39.7856 14.6762C39.6723 14.6152 39.6026 14.5717 39.4894 14.5107C39.4284 14.4758 39.4022 14.4671 39.3499 14.441L36.1694 12.7156C35.969 12.5936 35.0366 12.0708 34.9233 12.0708C34.8275 12.0708 34.1565 12.4716 34.0084 12.5413L27.1158 16.2709C27.0025 16.3231 26.9153 16.3667 26.8108 16.4277L21.9833 19.0331C21.8701 19.0941 21.8178 19.1377 21.6871 19.1987L21.2514 19.434C21.1642 19.4775 21.1642 19.495 21.0945 19.5298C20.9987 19.5908 20.8941 19.617 20.7895 19.6867L19.8659 20.1834C19.7439 20.2443 19.6829 20.2966 19.5696 20.3489L18.1667 21.1157C18.1144 21.1419 18.1144 21.1332 18.0708 21.1593C17.8704 21.2726 17.6613 21.351 17.4696 21.4817C17.3563 21.5514 17.2866 21.5776 17.1646 21.6386L15.814 22.3879C15.7094 22.4489 15.7355 22.3967 15.7007 22.5187Z" fill="white"/>
</svg>
