<svg width="116" height="42" viewBox="0 0 116 42" fill="none" xmlns="http://www.w3.org/2000/svg">
<rect x="0.727539" y="0.130859" width="114.545" height="41.7391" rx="6" fill="black"/>
<path d="M18.5326 19.5925L8.81738 30.1368C8.8183 30.1386 8.8183 30.1414 8.81921 30.1433C9.11759 31.2883 10.1396 32.1309 11.3532 32.1309C11.8386 32.1309 12.2939 31.9965 12.6845 31.7613L12.7155 31.7427L23.6507 25.2902L18.5326 19.5925Z" fill="#EA4335"/>
<path d="M28.3607 17.797L28.3516 17.7905L23.6304 14.9921L18.3115 19.8322L23.6496 25.2891L28.3452 22.5186C29.1683 22.0633 29.7276 21.1759 29.7276 20.1532C29.7276 19.1361 29.1765 18.2533 28.3607 17.797Z" fill="#FBBC04"/>
<path d="M8.81696 10.1241C8.75856 10.3443 8.72754 10.5757 8.72754 10.8146V29.4471C8.72754 29.686 8.75856 29.9174 8.81787 30.1367L18.8661 19.8621L8.81696 10.1241Z" fill="#4285F4"/>
<path d="M18.6042 20.1309L23.632 14.9903L12.7096 8.51446C12.3126 8.27091 11.8491 8.13095 11.3536 8.13095C10.14 8.13095 9.11619 8.97542 8.81781 10.1213C8.81781 10.1222 8.81689 10.1232 8.81689 10.1241L18.6042 20.1309Z" fill="#34A853"/>
<path d="M44.3375 11.8409C44.3375 12.8409 44.0409 13.6375 43.4475 14.2309C42.7809 14.9375 41.9042 15.2909 40.8175 15.2909C39.7775 15.2909 38.8975 14.9309 38.1775 14.2109C37.4575 13.4909 37.0975 12.6042 37.0975 11.5509C37.0975 10.4975 37.4575 9.61086 38.1775 8.89086C38.8975 8.17086 39.7775 7.81086 40.8175 7.81086C41.3442 7.81086 41.8409 7.90419 42.3075 8.09086C42.7742 8.27753 43.1575 8.54086 43.4575 8.88086L42.7975 9.54086C42.5775 9.27419 42.2909 9.06753 41.9375 8.92086C41.5909 8.76753 41.2175 8.69086 40.8175 8.69086C40.0375 8.69086 39.3775 8.96086 38.8375 9.50086C38.3042 10.0475 38.0375 10.7309 38.0375 11.5509C38.0375 12.3709 38.3042 13.0542 38.8375 13.6009C39.3775 14.1409 40.0375 14.4109 40.8175 14.4109C41.5309 14.4109 42.1242 14.2109 42.5975 13.8109C43.0709 13.4109 43.3442 12.8609 43.4175 12.1609H40.8175V11.3009H44.2875C44.3209 11.4875 44.3375 11.6675 44.3375 11.8409ZM49.6354 7.97086V8.85086H46.3754V11.1209H49.3154V11.9809H46.3754V14.2509H49.6354V15.1309H45.4554V7.97086H49.6354ZM53.3153 8.85086V15.1309H52.3953V8.85086H50.3953V7.97086H55.3153V8.85086H53.3153ZM59.3929 15.1309H58.4729V7.97086H59.3929V15.1309ZM63.2762 8.85086V15.1309H62.3562V8.85086H60.3562V7.97086H65.2762V8.85086H63.2762ZM75.2486 11.5509C75.2486 12.6109 74.8952 13.4975 74.1886 14.2109C73.4752 14.9309 72.6019 15.2909 71.5686 15.2909C70.5286 15.2909 69.6552 14.9309 68.9486 14.2109C68.2419 13.4975 67.8886 12.6109 67.8886 11.5509C67.8886 10.4909 68.2419 9.60419 68.9486 8.89086C69.6552 8.17086 70.5286 7.81086 71.5686 7.81086C72.6086 7.81086 73.4819 8.17419 74.1886 8.90086C74.8952 9.61419 75.2486 10.4975 75.2486 11.5509ZM68.8286 11.5509C68.8286 12.3775 69.0886 13.0609 69.6086 13.6009C70.1352 14.1409 70.7886 14.4109 71.5686 14.4109C72.3486 14.4109 72.9986 14.1409 73.5186 13.6009C74.0452 13.0675 74.3086 12.3842 74.3086 11.5509C74.3086 10.7175 74.0452 10.0342 73.5186 9.50086C72.9986 8.96086 72.3486 8.69086 71.5686 8.69086C70.7886 8.69086 70.1352 8.96086 69.6086 9.50086C69.0886 10.0409 68.8286 10.7242 68.8286 11.5509ZM77.2543 15.1309H76.3343V7.97086H77.4543L80.9343 13.5409H80.9743L80.9343 12.1609V7.97086H81.8543V15.1309H80.8943L77.2543 9.29086H77.2143L77.2543 10.6709V15.1309Z" fill="white"/>
<path d="M94.2457 31.5405H95.8745V20.529H94.2457V31.5405ZM108.916 24.4955L107.049 29.2697H106.993L105.056 24.4955H103.301L106.207 31.1679L104.551 34.8798H106.249L110.728 24.4955H108.916ZM99.6794 30.2897C99.1452 30.2897 98.4015 30.021 98.4015 29.3542C98.4015 28.5051 99.3276 28.1792 100.128 28.1792C100.844 28.1792 101.182 28.3351 101.616 28.5474C101.49 29.5674 100.619 30.2897 99.6794 30.2897ZM99.8758 24.255C98.6965 24.255 97.4745 24.7791 96.9699 25.9409L98.4154 26.5496C98.7245 25.9409 99.2997 25.7419 99.9037 25.7419C100.746 25.7419 101.602 26.2519 101.616 27.1592V27.2719C101.321 27.1019 100.69 26.8473 99.9177 26.8473C98.3596 26.8473 96.7727 27.7115 96.7727 29.3261C96.7727 30.7997 98.0506 31.7493 99.4821 31.7493C100.578 31.7493 101.182 31.2534 101.56 30.672H101.616V31.522H103.188V27.3001C103.188 25.3455 101.743 24.255 99.8758 24.255ZM89.8096 25.8361H87.493V22.0617H89.8096C91.0273 22.0617 91.7187 23.0791 91.7187 23.9485C91.7187 24.802 91.0273 25.8361 89.8096 25.8361ZM89.7677 20.529H85.8651V31.5405H87.493V27.3688H89.7677C91.5729 27.3688 93.3475 26.0493 93.3475 23.9485C93.3475 21.8476 91.5729 20.529 89.7677 20.529ZM68.4858 30.2915C67.3607 30.2915 66.4188 29.341 66.4188 28.0356C66.4188 26.7161 67.3607 25.7507 68.4858 25.7507C69.597 25.7507 70.4682 26.7161 70.4682 28.0356C70.4682 29.341 69.597 30.2915 68.4858 30.2915ZM70.3564 25.1121H70.2997C69.934 24.6725 69.2313 24.2753 68.3453 24.2753C66.4887 24.2753 64.7874 25.9207 64.7874 28.0356C64.7874 30.1356 66.4887 31.7678 68.3453 31.7678C69.2313 31.7678 69.934 31.3705 70.2997 30.916H70.3564V31.456C70.3564 32.8891 69.597 33.6554 68.3732 33.6554C67.3747 33.6554 66.7558 32.9314 66.5026 32.3209L65.0825 32.9173C65.4901 33.9109 66.5733 35.1309 68.3732 35.1309C70.2857 35.1309 71.9032 33.9954 71.9032 31.2287V24.5016H70.3564V25.1121ZM73.0284 31.5405H74.6598V20.5281H73.0284V31.5405ZM77.0637 27.9079C77.0218 26.4606 78.1749 25.7225 79.0042 25.7225C79.6518 25.7225 80.2 26.0484 80.3824 26.517L77.0637 27.9079ZM82.1265 26.6588C81.8175 25.822 80.8748 24.2753 78.9483 24.2753C77.0358 24.2753 75.4471 25.793 75.4471 28.0215C75.4471 30.1215 77.0218 31.7678 79.1307 31.7678C80.8329 31.7678 81.8175 30.7178 82.2251 30.1074L80.9594 29.2556C80.5378 29.8801 79.9608 30.2915 79.1307 30.2915C78.3015 30.2915 77.7105 29.9083 77.3308 29.1569L82.2949 27.0843L82.1265 26.6588ZM42.5776 25.4248V27.0138H46.3459C46.2333 27.9079 45.9383 28.5606 45.4887 29.0142C44.9397 29.5683 44.0816 30.1787 42.5776 30.1787C40.2566 30.1787 38.4428 28.2911 38.4428 25.9498C38.4428 23.6076 40.2566 21.7208 42.5776 21.7208C43.8294 21.7208 44.7433 22.2176 45.418 22.8562L46.5292 21.7349C45.5865 20.8267 44.3356 20.1309 42.5776 20.1309C39.3995 20.1309 36.7275 22.7426 36.7275 25.9498C36.7275 29.1569 39.3995 31.7678 42.5776 31.7678C44.2929 31.7678 45.5865 31.1996 46.599 30.1356C47.6404 29.0856 47.9634 27.6102 47.9634 26.4175C47.9634 26.0484 47.9354 25.7084 47.8787 25.4248H42.5776ZM52.2484 30.2915C51.1232 30.2915 50.1526 29.3551 50.1526 28.0215C50.1526 26.6729 51.1232 25.7507 52.2484 25.7507C53.3727 25.7507 54.3433 26.6729 54.3433 28.0215C54.3433 29.3551 53.3727 30.2915 52.2484 30.2915ZM52.2484 24.2753C50.1945 24.2753 48.5211 25.8502 48.5211 28.0215C48.5211 30.1787 50.1945 31.7678 52.2484 31.7678C54.3014 31.7678 55.9747 30.1787 55.9747 28.0215C55.9747 25.8502 54.3014 24.2753 52.2484 24.2753ZM60.3776 30.2915C59.2524 30.2915 58.2818 29.3551 58.2818 28.0215C58.2818 26.6729 59.2524 25.7507 60.3776 25.7507C61.5027 25.7507 62.4725 26.6729 62.4725 28.0215C62.4725 29.3551 61.5027 30.2915 60.3776 30.2915ZM60.3776 24.2753C58.3246 24.2753 56.6512 25.8502 56.6512 28.0215C56.6512 30.1787 58.3246 31.7678 60.3776 31.7678C62.4306 31.7678 64.1039 30.1787 64.1039 28.0215C64.1039 25.8502 62.4306 24.2753 60.3776 24.2753Z" fill="white"/>
</svg>
