<svg width="18" height="16" viewBox="0 0 18 16" fill="none" xmlns="http://www.w3.org/2000/svg">
<path d="M13.1328 0C13.0937 0 13.0601 0 13.021 0C11.483 0.0347952 10.0122 0.829286 9.18455 2.07032C9.12303 2.1573 9.06152 2.2037 8.99441 2.2037C8.9273 2.2037 8.86578 2.1573 8.80427 2.07032C7.97099 0.829286 6.50018 0.0347952 4.96785 0C4.94548 0 4.92311 0 4.90633 0C3.40756 0 2.043 0.678507 1.09229 1.97173C0.0688721 3.35194 -0.249897 5.16129 0.197498 7.05183C0.991625 10.427 4.07865 13.7267 8.44076 15.8724C8.61412 15.9594 8.80427 16 9 16C9.19014 16 9.38029 15.9594 9.55365 15.8724C13.9213 13.7267 17.0028 10.427 17.8025 7.05183C18.2499 5.16129 17.9311 3.35774 16.9077 1.97173C15.9514 0.695904 14.6204 0 13.1328 0Z" fill="#DD00AC"/>
</svg>
