<svg width="13" height="14" viewBox="0 0 13 14" fill="none" xmlns="http://www.w3.org/2000/svg">
<path d="M1 8.20024C1 7.08014 1 6.52009 1.21799 6.09226C1.40973 5.71594 1.71569 5.40998 2.09202 5.21823C2.51984 5.00024 3.0799 5.00024 4.2 5.00024H8.46666C9.58677 5.00024 10.1468 5.00024 10.5746 5.21823C10.951 5.40998 11.2569 5.71594 11.4487 6.09226C11.6667 6.52009 11.6667 7.08014 11.6667 8.20024V8.20024C11.6667 9.8804 11.6667 10.7205 11.3397 11.3622C11.0521 11.9267 10.5931 12.3856 10.0286 12.6733C9.3869 13.0002 8.54682 13.0002 6.86667 13.0002H5.8C4.11984 13.0002 3.27976 13.0002 2.63803 12.6733C2.07354 12.3856 1.6146 11.9267 1.32698 11.3622C1 10.7205 1 9.8804 1 8.20024V8.20024Z" stroke="#CCCEEF"/>
<path d="M8.99935 4.33333V3.66667C8.99935 2.19391 7.80544 1 6.33268 1V1C4.85992 1 3.66602 2.19391 3.66602 3.66667V4.33333" stroke="#CCCEEF" stroke-linecap="round"/>
<circle cx="6.33333" cy="8.99959" r="1.33333" fill="#CCCEEF"/>
</svg>
