<svg width="20" height="20" viewBox="0 0 20 20" fill="none" xmlns="http://www.w3.org/2000/svg">
<path d="M9.14703 1.39394C9.53706 0.756537 10.4629 0.756538 10.853 1.39394L11.3675 2.23485C11.6455 2.68901 12.2305 2.84577 12.6982 2.59141L13.5643 2.12044C14.2208 1.76346 15.0226 2.2264 15.0417 2.97342L15.0669 3.95896C15.0805 4.49123 15.5088 4.9195 16.041 4.93309L17.0266 4.95827C17.7736 4.97735 18.2365 5.77919 17.8796 6.43567L17.4086 7.30176C17.1542 7.76951 17.311 8.35454 17.7652 8.63245L18.6061 9.14703C19.2435 9.53706 19.2435 10.4629 18.6061 10.853L17.7652 11.3675C17.311 11.6455 17.1542 12.2305 17.4086 12.6982L17.8796 13.5643C18.2365 14.2208 17.7736 15.0226 17.0266 15.0417L16.041 15.0669C15.5088 15.0805 15.0805 15.5088 15.0669 16.041L15.0417 17.0266C15.0226 17.7736 14.2208 18.2365 13.5643 17.8796L12.6982 17.4086C12.2305 17.1542 11.6455 17.311 11.3675 17.7652L10.853 18.6061C10.4629 19.2435 9.53706 19.2435 9.14703 18.6061L8.63245 17.7652C8.35454 17.311 7.76951 17.1542 7.30176 17.4086L6.43567 17.8796C5.77919 18.2365 4.97735 17.7736 4.95827 17.0266L4.93309 16.041C4.9195 15.5088 4.49123 15.0805 3.95896 15.0669L2.97342 15.0417C2.2264 15.0226 1.76346 14.2208 2.12044 13.5643L2.59141 12.6982C2.84577 12.2305 2.68901 11.6455 2.23485 11.3675L1.39394 10.853C0.756537 10.4629 0.756538 9.53706 1.39394 9.14702L2.23485 8.63245C2.68901 8.35454 2.84577 7.76951 2.59141 7.30176L2.12044 6.43567C1.76346 5.77919 2.2264 4.97735 2.97342 4.95827L3.95896 4.93309C4.49123 4.9195 4.9195 4.49123 4.93309 3.95896L4.95827 2.97342C4.97735 2.2264 5.77919 1.76346 6.43567 2.12044L7.30176 2.59141C7.76951 2.84577 8.35454 2.68901 8.63245 2.23485L9.14703 1.39394Z" fill="#D204AD"/>
<path d="M7 10L9 12L13 8" stroke="white" stroke-width="2" stroke-linecap="round"/>
</svg>
