<svg width="16" height="17" viewBox="0 0 16 17" fill="none" xmlns="http://www.w3.org/2000/svg">
<mask id="path-1-inside-1_275_79" fill="white">
<path fill-rule="evenodd" clip-rule="evenodd" d="M3 0C1.34315 0 0 1.14167 0 2.55V14.45C0 15.8583 1.34315 17 3 17H7V12.75L6.99999 12.6845C6.99988 12.1403 6.99978 11.6209 7.0672 11.1947C7.14484 10.7038 7.3295 10.2043 7.79169 9.81147C8.23043 9.43855 8.74767 9.30945 9.24055 9.25312C9.70629 9.1999 10.2851 9.19993 10.9453 9.19997L11 9.19998H16V2.55C16 1.14167 14.6569 0 13 0H3ZM15.6431 11.2H11C10.2688 11.2 9.80602 11.2015 9.46763 11.2402C9.14844 11.2767 9.08933 11.3331 9.08705 11.3353L9.08699 11.3354L9.08624 11.3359L9.08545 11.3377C9.07926 11.3505 9.06017 11.3964 9.04264 11.5072C9.00292 11.7583 9 12.1158 9 12.75V16.771C9.32396 16.6456 9.62215 16.4712 9.87868 16.2531L15.1213 11.7969C15.3306 11.619 15.5057 11.4176 15.6431 11.2Z"/>
</mask>
<path d="M7 17V18H8V17H7ZM7 12.75H8V12.7498L7 12.75ZM6.99999 12.6845L7.99999 12.6844V12.6843L6.99999 12.6845ZM7.0672 11.1947L8.05492 11.351L7.0672 11.1947ZM7.79169 9.81147L7.14404 9.04954H7.14404L7.79169 9.81147ZM9.24055 9.25312L9.12701 8.25959L9.24055 9.25312ZM10.9453 9.19997L10.9452 10.2H10.9453L10.9453 9.19997ZM11 9.19998L11 10.2H11V9.19998ZM16 9.19998V10.2H17V9.19998H16ZM15.6431 11.2L16.4886 11.734L17.4575 10.2H15.6431V11.2ZM9.46763 11.2402L9.35409 10.2467H9.35409L9.46763 11.2402ZM9.08705 11.3353L8.39664 10.6119L8.39607 10.6124L9.08705 11.3353ZM9.08699 11.3354L9.65891 12.1557L9.7222 12.1115L9.77797 12.0582L9.08699 11.3354ZM9.08624 11.3359L8.51432 10.5156L8.28289 10.6769L8.16991 10.9354L9.08624 11.3359ZM9.08545 11.3377L9.98556 11.7733L9.99401 11.7559L10.0018 11.7381L9.08545 11.3377ZM9.04264 11.5072L8.05492 11.351V11.351L9.04264 11.5072ZM9 16.771H8V18.23L9.36076 17.7036L9 16.771ZM9.87868 16.2531L9.23103 15.4912L9.23103 15.4912L9.87868 16.2531ZM15.1213 11.7969L15.769 12.5588H15.769L15.1213 11.7969ZM1 2.55C1 1.84018 1.73687 1 3 1V-1C0.949417 -1 -1 0.443168 -1 2.55H1ZM1 14.45V2.55H-1V14.45H1ZM3 16C1.73687 16 1 15.1598 1 14.45H-1C-1 16.5568 0.949417 18 3 18V16ZM7 16H3V18H7V16ZM6 12.75V17H8V12.75H6ZM5.99999 12.6846L6 12.7501L8 12.7498L7.99999 12.6844L5.99999 12.6846ZM6.07948 11.0385C5.99717 11.5589 5.99989 12.1654 5.99999 12.6847L7.99999 12.6843C7.99988 12.1152 8.00239 11.683 8.05492 11.351L6.07948 11.0385ZM7.14404 9.04954C6.4385 9.64925 6.17962 10.4054 6.07948 11.0385L8.05492 11.351C8.11007 11.0023 8.2205 10.7594 8.43934 10.5734L7.14404 9.04954ZM9.12701 8.25959C8.54979 8.32555 7.80188 8.49037 7.14404 9.04954L8.43934 10.5734C8.65897 10.3867 8.94555 10.2933 9.35409 10.2467L9.12701 8.25959ZM10.9454 8.19997C10.3053 8.19993 9.6619 8.19846 9.12701 8.25959L9.35409 10.2467C9.75068 10.2013 10.2649 10.1999 10.9452 10.2L10.9454 8.19997ZM11 8.19998L10.9453 8.19997L10.9453 10.2L11 10.2L11 8.19998ZM16 8.19998H11V10.2H16V8.19998ZM15 2.55V9.19998H17V2.55H15ZM13 1C14.2631 1 15 1.84018 15 2.55H17C17 0.443169 15.0506 -1 13 -1V1ZM3 1H13V-1H3V1ZM11 12.2H15.6431V10.2H11V12.2ZM9.58117 12.2337C9.84922 12.2031 10.2435 12.2 11 12.2V10.2C10.294 10.2 9.76282 10.1999 9.35409 10.2467L9.58117 12.2337ZM9.77747 12.0587C9.77754 12.0586 9.77669 12.0595 9.77565 12.0604C9.77455 12.0615 9.77319 12.0628 9.77162 12.0642C9.76845 12.0672 9.76491 12.0705 9.76103 12.074C9.75324 12.0811 9.74513 12.0883 9.73669 12.0955C9.71985 12.1098 9.70314 12.1231 9.68671 12.1353C9.65401 12.1595 9.6235 12.1788 9.59683 12.194C9.54436 12.2238 9.5037 12.2394 9.48437 12.246C9.44898 12.2582 9.46708 12.2468 9.58118 12.2337L9.35409 10.2467C9.149 10.2701 8.97794 10.3051 8.83263 10.3552C8.75834 10.3808 8.68252 10.4132 8.60836 10.4553C8.57084 10.4766 8.53285 10.501 8.49523 10.5289C8.47635 10.5429 8.45782 10.5576 8.4397 10.573C8.43063 10.5808 8.42202 10.5884 8.41385 10.5958C8.40978 10.5995 8.40608 10.603 8.40278 10.6061C8.40115 10.6076 8.39973 10.6089 8.39858 10.61C8.3975 10.6111 8.39661 10.6119 8.39664 10.6119L9.77747 12.0587ZM9.77797 12.0582L9.77803 12.0582L8.39607 10.6124L8.39601 10.6125L9.77797 12.0582ZM9.65816 12.1562L9.65891 12.1557L8.51507 10.515L8.51432 10.5156L9.65816 12.1562ZM10.0018 11.7381L10.0026 11.7363L8.16991 10.9354L8.16913 10.9372L10.0018 11.7381ZM10.0304 11.6634C10.0338 11.6416 10.0348 11.6432 10.0294 11.6619C10.024 11.6806 10.0111 11.7205 9.98556 11.7733L8.18535 10.902C8.12346 11.0299 8.08232 11.1777 8.05492 11.351L10.0304 11.6634ZM10 12.75C10 12.0801 10.0059 11.8178 10.0304 11.6634L8.05492 11.351C7.99991 11.6988 8 12.1516 8 12.75H10ZM10 16.771V12.75H8V16.771H10ZM9.23103 15.4912C9.06501 15.6323 8.86513 15.7509 8.63924 15.8383L9.36076 17.7036C9.78278 17.5404 10.1793 17.31 10.5263 17.0151L9.23103 15.4912ZM14.4737 11.0349L9.23103 15.4912L10.5263 17.0151L15.769 12.5588L14.4737 11.0349ZM14.7977 10.666C14.7163 10.7948 14.6088 10.9201 14.4737 11.0349L15.769 12.5588C16.0523 12.318 16.2951 12.0405 16.4886 11.734L14.7977 10.666Z" fill="#CCCEEF" mask="url(#path-1-inside-1_275_79)"/>
</svg>
