<svg width="48" height="49" viewBox="0 0 48 49" fill="none" xmlns="http://www.w3.org/2000/svg">
<path d="M22 1.6084C21.4477 1.6084 21 2.05611 21 2.6084C21 3.16068 21.4477 3.6084 22 3.6084V1.6084ZM26 3.6084C26.5523 3.6084 27 3.16068 27 2.6084C27 2.05611 26.5523 1.6084 26 1.6084V3.6084ZM47 22.6188C47 22.0665 46.5523 21.6188 46 21.6188C45.4477 21.6188 45 22.0665 45 22.6188H47ZM45 26.6208C45 27.1731 45.4477 27.6208 46 27.6208C46.5523 27.6208 47 27.1731 47 26.6208H45ZM22 45.6312C21.4477 45.6312 21 46.0789 21 46.6312C21 47.1835 21.4477 47.6312 22 47.6312V45.6312ZM26 47.6312C26.5523 47.6312 27 47.1835 27 46.6312C27 46.0789 26.5523 45.6312 26 45.6312V47.6312ZM3 22.6188C3 22.0665 2.55228 21.6188 2 21.6188C1.44772 21.6188 1 22.0665 1 22.6188H3ZM1 26.6208C1 27.1731 1.44772 27.6208 2 27.6208C2.55228 27.6208 3 27.1731 3 26.6208L1 26.6208ZM7.45986 45.5407L7.91404 44.6498H7.91404L7.45986 45.5407ZM3.0897 41.1683L3.98081 40.7145H3.98081L3.0897 41.1683ZM44.9098 41.1683L44.0187 40.7145V40.7145L44.9098 41.1683ZM40.5397 45.5407L40.0855 44.6498L40.5397 45.5407ZM40.5397 3.6989L40.0855 4.58981V4.58981L40.5397 3.6989ZM44.9098 8.07132L44.0187 8.52512V8.52513L44.9098 8.07132ZM7.45986 3.6989L7.91404 4.58981L7.45986 3.6989ZM3.0897 8.07132L3.98081 8.52513L3.0897 8.07132ZM14.0191 3.63032C14.5713 3.61974 15.0104 3.16354 14.9998 2.61135C14.9892 2.05917 14.533 1.62011 13.9809 1.63068L14.0191 3.63032ZM1.02205 14.5955C1.01148 15.1477 1.45055 15.6039 2.00273 15.6145C2.55492 15.625 3.01111 15.186 3.02168 14.6338L1.02205 14.5955ZM3.02168 34.6058C3.01111 34.0536 2.55492 33.6146 2.00273 33.6251C1.45055 33.6357 1.01148 34.0919 1.02205 34.6441L3.02168 34.6058ZM13.9809 47.6089C14.533 47.6195 14.9892 47.1804 14.9998 46.6282C15.0104 46.076 14.5713 45.6198 14.0192 45.6093L13.9809 47.6089ZM33.9804 45.6093C33.4282 45.6198 32.9892 46.076 32.9997 46.6282C33.0103 47.1804 33.4665 47.6195 34.0187 47.6089L33.9804 45.6093ZM46.9775 34.6441C46.9881 34.0919 46.549 33.6357 45.9968 33.6251C45.4446 33.6146 44.9884 34.0536 44.9779 34.6058L46.9775 34.6441ZM44.9779 14.6338C44.9884 15.186 45.4446 15.625 45.9968 15.6145C46.549 15.6039 46.9881 15.1477 46.9775 14.5955L44.9779 14.6338ZM34.0187 1.63068C33.4665 1.62011 33.0103 2.05917 32.9997 2.61135C32.9892 3.16354 33.4282 3.61974 33.9804 3.63032L34.0187 1.63068ZM22.7633 15.3395L22.056 14.6325L22.056 14.6325L22.7633 15.3395ZM14.7245 23.3824L15.4318 24.0893L14.7245 23.3824ZM14.7245 26.8822L15.4318 26.1753L14.7245 26.8822ZM21.7387 33.9001L21.0314 34.607L21.7387 33.9001ZM25.2367 33.9001L25.944 34.607L25.2367 33.9001ZM33.2755 25.8572L33.9828 26.5641H33.9828L33.2755 25.8572ZM22 3.6084H26V1.6084H22V3.6084ZM45 22.6188V26.6208H47V22.6188H45ZM22 47.6312H26V45.6312H22V47.6312ZM1 22.6188L1 26.6208L3 26.6208L3 22.6188H1ZM7.91404 44.6498C6.22062 43.7865 4.84374 42.4089 3.98081 40.7145L2.1986 41.6221C3.25314 43.6928 4.93586 45.3764 7.00569 46.4316L7.91404 44.6498ZM44.0187 40.7145C43.1558 42.4089 41.7789 43.7865 40.0855 44.6498L40.9939 46.4316C43.0637 45.3764 44.7464 43.6928 45.8009 41.6221L44.0187 40.7145ZM40.0855 4.58981C41.7789 5.4531 43.1558 6.83065 44.0187 8.52512L45.8009 7.61752C44.7464 5.5468 43.0637 3.86316 40.9939 2.80799L40.0855 4.58981ZM7.00569 2.80799C4.93586 3.86316 3.25314 5.5468 2.1986 7.61752L3.98081 8.52513C4.84374 6.83065 6.22062 5.4531 7.91404 4.58981L7.00569 2.80799ZM13.9809 1.63068C10.9062 1.68957 8.78775 1.89951 7.00569 2.80799L7.91404 4.58981C9.24377 3.91193 10.9366 3.68936 14.0191 3.63032L13.9809 1.63068ZM3.02168 14.6338C3.08069 11.5498 3.30316 9.85577 3.98081 8.52513L2.1986 7.61752C1.29075 9.4002 1.08091 11.5194 1.02205 14.5955L3.02168 14.6338ZM1.02205 34.6441C1.08091 37.7202 1.29075 39.8394 2.1986 41.6221L3.98081 40.7145C3.30316 39.3838 3.08069 37.6898 3.02168 34.6058L1.02205 34.6441ZM14.0192 45.6093C10.9366 45.5502 9.24377 45.3276 7.91404 44.6498L7.00569 46.4316C8.78775 47.3401 10.9062 47.55 13.9809 47.6089L14.0192 45.6093ZM34.0187 47.6089C37.0933 47.55 39.2118 47.3401 40.9939 46.4316L40.0855 44.6498C38.7558 45.3276 37.0629 45.5502 33.9804 45.6093L34.0187 47.6089ZM44.9779 34.6058C44.9188 37.6898 44.6964 39.3838 44.0187 40.7145L45.8009 41.6221C46.7088 39.8394 46.9186 37.7202 46.9775 34.6441L44.9779 34.6058ZM46.9775 14.5955C46.9186 11.5194 46.7088 9.4002 45.8009 7.61752L44.0187 8.52513C44.6964 9.85577 44.9188 11.5498 44.9779 14.6338L46.9775 14.5955ZM33.9804 3.63032C37.0629 3.68936 38.7558 3.91193 40.0855 4.58981L40.9939 2.80799C39.2118 1.89951 37.0933 1.68957 34.0187 1.63068L33.9804 3.63032ZM31.5265 13.6146H24.5123V15.6146H31.5265V13.6146ZM22.056 14.6325L14.0172 22.6755L15.4318 24.0893L23.4706 16.0464L22.056 14.6325ZM14.0172 27.5892L21.0314 34.607L22.446 33.1932L15.4318 26.1753L14.0172 27.5892ZM25.944 34.607L33.9828 26.5641L32.5682 25.1502L24.5294 33.1932L25.944 34.607ZM35 24.1073V17.0894H33V24.1073H35ZM33.9828 26.5641C34.6342 25.9124 35 25.0286 35 24.1073H33C33 24.4985 32.8446 24.8737 32.5682 25.1502L33.9828 26.5641ZM21.0314 34.607C22.3879 35.9643 24.5875 35.9643 25.944 34.607L24.5294 33.1932C23.9541 33.7689 23.0214 33.7689 22.446 33.1932L21.0314 34.607ZM14.0172 22.6755C12.6609 24.0324 12.6609 26.2322 14.0172 27.5892L15.4318 26.1753C14.8561 25.5993 14.8561 24.6653 15.4318 24.0893L14.0172 22.6755ZM24.5123 13.6146C23.5909 13.6146 22.7073 13.9808 22.056 14.6325L23.4706 16.0464C23.7469 15.7699 24.1217 15.6146 24.5123 15.6146V13.6146ZM31.5265 15.6146C32.3398 15.6146 33 16.2744 33 17.0894H35C35 15.1708 33.4454 13.6146 31.5265 13.6146V15.6146Z" fill="#EBEBEB"/>
</svg>
