<svg width="31" height="25" viewBox="0 0 31 25" fill="none" xmlns="http://www.w3.org/2000/svg">
<path d="M22.5336 0H7.57166C6.15351 0 4.84139 0.750884 4.12295 1.97357L0.596964 7.97433C-0.339724 9.56845 -0.0617833 11.5968 1.2692 12.8802L12.309 23.5252C13.864 25.0246 16.3285 25.0185 17.8761 23.5116L28.8068 12.8679C30.1204 11.5888 30.3962 9.58043 29.476 7.9946L25.9933 1.99249C25.2777 0.759121 23.9595 0 22.5336 0Z" fill="#009393"/>
<path d="M13.4385 10.0729C9.73181 10.0729 7.70567 11.12 7.15594 11.6435V10.387C8.16116 9.13049 11.7632 8.81636 13.4385 8.81636V6.93158H8.33393V4.49707H21.9986V6.93158H16.8154V8.81636C20.1452 8.81636 22.3389 9.75875 23.0195 10.2299V11.6435C21.8258 10.387 18.3861 10.0729 16.8154 10.0729V11.9577H13.4385V10.0729Z" fill="white"/>
<path d="M7.15594 12.9V11.6435C7.72901 12.1932 10.1098 13.2927 15.0487 13.2927C19.9875 13.2927 22.4204 12.1932 23.0195 11.6435V12.9C21.7067 14.1565 18.3568 14.523 16.846 14.5492V18.8685H13.4076V14.5492C10.1567 14.5492 7.8853 13.4497 7.15594 12.9Z" fill="white"/>
</svg>
